<svg version="1.1" xmlns="http://www.w3.org/2000/svg" xmlns:xlink="http://www.w3.org/1999/xlink" x="0px" y="0px" viewBox="56 25 344 63">
    <path fill="#000" d="M69,27.3l0.4,0.4v30.7c0,11.3,6.3,16.8,14.3,16.8s14.3-5.5,14.3-16.8V27.7l0.4-0.4h10.9l0.4,0.4v32.3 c0,17.2-11.8,27.3-26,27.3c-14.3,0-26-10.1-26-27.3V27.7l0.4-0.4H69z"/>
    <path fill="#000" d="M131.8,27.3l0.8,0.4L162,66V27.7l0.4-0.4h10.9l0.4,0.4v58l-0.4,0.4H162l-0.8-0.4l-29.4-38.2v38.2l-0.4,0.4h-10.9l-0.4-0.4 v-58l0.4-0.4H131.8z" style=""/>
    <path fill="#000" d="M190.1,26.9l7.6,7.6v0.8l-7.6,7.6h-0.8l-7.6-7.6v-0.8l7.6-7.6H190.1z M195.1,46.6l0.4,0.4v38.6l-0.4,0.4h-10.9l-0.4-0.4 V47.1l0.4-0.4H195.1z"/>
    <path fill="#000" d="M225.6,27.3c18.1,0,31.1,13.2,31.1,29.4c0,16.2-13,29.4-31.1,29.4h-19.7l-0.4-0.4v-58l0.4-0.4H225.6z M217.2,74.4h8.4 c10.9,0,18.5-7.1,18.5-17.6c0-10.5-7.6-17.6-18.5-17.6h-8.4V74.4z"/>
    <path fill="#000" d="M291,27.3l0.4,0.4l22.3,58l-0.4,0.4h-13l-0.4-0.4l-4.2-11.8h-21l-4.2,11.8l-0.4,0.4h-13l-0.4-0.4l22.3-58l0.4-0.4H291z M278.4,62.2h13.4l-6.7-19.7L278.4,62.2z"/>
    <path fill="#000" d="M319.2,27.3l0.4,0.4L333,47.5l13.4-19.7l0.4-0.4h11.8l0.4,0.4l-20.2,31.9v26l-0.4,0.4h-10.9l-0.4-0.4v-26L307,27.7 l0.4-0.4H319.2z"/>
    <path fill="#000" d="M384.1,42c-1.8-2.5-4.4-3.8-6.5-3.8c-2.9,0-4.2,1.7-4.2,4.2c0,6.7,24.8,6.7,24.8,26c0,10.1-8.4,18.9-19.7,18.9 c-8.8,0-16.8-4.6-19.7-13l9.7-6.5h0.8c2.1,5.6,5.9,7.3,9.2,7.3c4.2,0,7.1-2.5,7.1-6.7c0-10.1-24.8-9.7-24.8-26 c0-9.7,7.5-16.4,16.8-16.4c7.1,0,11.8,2.9,16.4,9.2L385,42H384.1z"/>
</svg>