<svg xmlns="http://www.w3.org/2000/svg" xmlns:xlink="http://www.w3.org/1999/xlink" version="1.1"  viewBox="0 0 100 125"  xml:space="preserve">
    <rect x="51.8" y="56" transform="matrix(0.7071 -0.7071 0.7071 0.7071 -23.6213 56.6867)" fill="#fff" width="9.6" height="1.7"/>
    <path fill="#fff" d="M57.8,51.3c2.6-3.8,4.1-8.5,4.1-13.4C61.9,24.7,51.2,14,38,14S14.1,24.6,14.1,37.8S24.8,61.7,38,61.7   c4.8,0,9.2-1.4,12.8-3.8l0.9,0.9l6.8-6.8L57.8,51.3z M46.2,53.1L46.2,53.1C43.7,54.3,40.9,55,38,55c-9.6,0-17.3-7.8-17.3-17.3   S28.4,20.4,38,20.4s17.3,7.8,17.3,17.3c0,3.2-0.9,6.1-2.3,8.7C51.3,49.2,48.9,51.5,46.2,53.1z M50.9,57.9L50.9,57.9   c2.8-1.8,5.1-4.1,6.8-6.7C55.9,53.9,53.6,56.1,50.9,57.9z"/>
    <path fill="#fff" d="M84.5,78l-23-23.1l-6.8,6.8l23.1,23.1c0.9,0.9,2.2,1.4,3.4,1.4s2.4-0.5,3.4-1.4   C86.4,82.9,86.4,79.9,84.5,78z"/>
</svg>